<?xml version="1.0" encoding="UTF-8"?> <svg xmlns="http://www.w3.org/2000/svg" xmlns:xlink="http://www.w3.org/1999/xlink" version="1.1" id="Ebene_1" x="0px" y="0px" viewBox="0 0 750 405.8" style="enable-background:new 0 0 750 405.8;" xml:space="preserve"> <style type="text/css"> .st0{display:none;} .st1{fill:#1D1D1B;} .st2{font-family:'BauerBodoni-RomanSC';} .st3{font-size:81.222px;} .st4{fill:#005555;} .st5{enable-background:new ;} </style> <g id="Konstruktion" class="st0"> </g> <g id="Konstruktion_1_" class="st0"> </g> <g id="Ebene_1_1_"> <g> <path class="st1" d="M122.3,58.3h-5.7v-1.2h29.6l1.2,9.7h-1.2c-0.8-6.5-3.2-8.5-9.7-8.5h-6.9v15.8h2.8c5.3,0,5.7-0.8,6.1-6.5h1.2 v13.8h-1.2c0-5.3-0.8-6.5-6.1-6.5h-2.8v16.6h6.9v1.2h-19.4v-1.2h5.7V58.3H122.3z"></path> <path class="st1" d="M206.6,58.3h-5.7v-1.2h16.6c6.9,0,13.8,1.6,13.8,8.5c0,7.3-8.5,8.1-11.3,8.5l0,0c9.7,1.2,10.1,5.3,10.5,10.5 s0.8,7.7,2.8,7.7c1.2,0,2,0,3.2-0.8l0.4,0.8c-1.2,0.8-3.6,1.2-5.3,1.2c-7.3,0-8.1-4.9-8.5-9.3s-0.4-9.3-6.5-9.3h-3.2v16.6h5.7v1.2 h-18.6v-1.2h5.7V58.3H206.6z M213.5,73.7h2.8c1.6,0,8.1-0.4,8.1-8.1c0-5.3-2.4-7.7-7.7-7.7h-3.2L213.5,73.7L213.5,73.7z"></path> <path class="st1" d="M290.5,58.3h-5.7v-1.2H314l0.8,9.3h-1.2c-0.4-5.7-2.8-7.7-8.5-7.7h-7.7v15.8h2.8c5.3,0,5.7-0.8,6.1-6.5h1.2 v13.8h-1.2c0-5.3-0.8-6.5-6.1-6.5h-2.8V92h9.3c5.7,0,8.9-2.8,8.9-9.7h1.2v10.9h-32.4V92h5.7V58.3H290.5z"></path> <path class="st1" d="M376,58.3h-6.1v-1.2h18.6v1.2h-6.1V92h6.1v1.2h-18.6V92h6.1V58.3z"></path> <path class="st1" d="M442.4,71.3h60.8v4.5h-60.8V71.3z"></path> <path class="st1" d="M562.3,58.3h-5.7v-1.2h29.2l0.8,9.3h-1.2c-0.4-5.7-2.8-7.7-8.5-7.7h-7.7v15.8h2.8c5.3,0,5.7-0.8,6.1-6.5h1.2 v13.8h-1.2c0-5.3-0.8-6.5-6.1-6.5h-2.8V92h9.3c5.7,0,8.9-2.8,8.9-9.7h1.2v10.9h-32.4V92h5.7V58.3H562.3z"></path> </g> <text transform="matrix(1 0 0 1 655.1925 92.9201)" class="st1 st2 st3"> </text> <g> <path class="st1" d="M121.9,130.5h-5.7v-1.2h16.2c6.9,0,13.8,1.6,13.8,8.5c0,7.3-8.5,8.1-11.3,8.5l0,0c9.7,1.2,10.1,5.3,10.5,10.5 s0.8,7.7,2.8,7.7c1.2,0,2,0,3.2-0.8l0.4,0.8c-1.2,0.8-3.6,1.2-5.3,1.2c-7.3,0-8.1-4.9-8.5-9.3s-0.4-9.3-6.5-9.3h-3.2v16.6h5.7v1.2 h-17.8v-1.2h5.7L121.9,130.5L121.9,130.5z M128.8,146.3h2.8c1.6,0,8.1-0.4,8.1-8.1c0-5.3-2.4-7.7-7.7-7.7h-3.2L128.8,146.3 L128.8,146.3z"></path> <path class="st1" d="M205.8,130.5h-5.7v-1.2h29.2l0.8,9.3h-1.2c-0.4-5.7-2.8-7.7-8.5-7.7h-7.7v15.8h2.8c5.3,0,5.7-0.8,6.1-6.5h1.2 V154h-1.2c0-5.3-0.8-6.5-6.1-6.5h-2.8v16.6h8.9c5.7,0,8.9-2.8,8.9-9.7h1.2v10.9h-32.4v-1.2h5.7v-33.6H205.8L205.8,130.5z"></path> <path class="st1" d="M292.9,130.5h-5.7v-1.2h18.2c18.6,0,18.6,16.6,18.6,18.2c0,7.3-3.6,18.2-19.4,18.2h-17.4v-1.2h5.7 C292.9,164.5,292.9,130.5,292.9,130.5z M299.8,164.1c8.1,0,16.2,0,16.2-17.4c0-16.2-9.7-16.2-16.2-16.2V164.1z"></path> <path class="st1" d="M382,143.4h60.8v4.5H382V143.4z"></path> <path class="st1" d="M497.5,130.5v-1.2h13.8l18.2,24.7l0,0v-19.9c0-2-0.4-3.2-3.2-3.2h-2.4v-1.2h13v1.2h-2.4 c-2.8,0-3.2,1.6-3.2,3.2v31.6h-0.8l-25.1-33.2l0,0v28.8c0,2,0.4,3.2,3.2,3.2h2.8v1.2H498v-1.2h2.4c2.8,0,3.2-1.6,3.2-3.2v-30h-6.1 V130.5z"></path> <path class="st1" d="M590.7,130.5H585v-1.2h29.2l0.8,9.3h-1.2c-0.4-5.7-2.8-7.7-8.5-7.7h-7.7v15.8h2.8c5.3,0,5.7-0.8,6.1-6.5h1.2 V154h-1.2c0-5.3-0.8-6.5-6.1-6.5h-2.8v16.6h9.3c5.7,0,8.9-2.8,8.9-9.7h1.2v10.9h-32.4v-1.2h5.7v-33.6H590.7L590.7,130.5z"></path> <path class="st1" d="M676.2,130.5h-5.7v-1.2h16.6c6.9,0,13.8,1.6,13.8,8.5c0,7.3-8.5,8.1-11.3,8.5l0,0c9.7,1.2,10.1,5.3,10.5,10.5 c0.4,5.3,0.8,7.7,2.8,7.7c1.2,0,2,0,3.2-0.8l0.4,0.8c-1.2,0.8-3.6,1.2-5.3,1.2c-7.3,0-8.1-4.9-8.5-9.3c-0.4-4.5-0.4-9.3-6.5-9.3 H683v16.6h5.7v1.2h-18.6v-1.2h5.7v-33.2H676.2z M683.1,146.3h2.8c1.6,0,8.1-0.4,8.1-8.1c0-5.3-2.4-7.7-7.7-7.7h-3.2L683.1,146.3 L683.1,146.3z"></path> </g> <g> <path class="st1" d="M120.7,333h-2.4v-0.8h0.8c1.6,0,3.2,0,4.9-0.8l-1.6,5.3l0,0c1.6-2.4,4.5-5.3,6.9-5.3c1.6,0,2.8,1.2,2.8,2.4 c0,0.8,0,1.6-0.4,2.4l0,0c2-2.8,4.5-4.9,6.5-4.9c2.4,0,3.6,1.2,3.6,3.2c0,1.6-3.6,10.5-3.6,11.3s0.4,1.2,0.8,1.2 c1.6,0,3.2-2.4,3.6-3.2l0.4,0.4c-0.8,1.2-2.4,4.1-5.3,4.1c-1.6,0-2.4-1.2-2.4-2.8c0-2.4,3.6-10.5,3.6-12.2c0-0.8-0.4-1.2-1.6-1.2 c-2,0-6.1,4.9-6.9,7.3l-2.4,8.5h-3.2L128,337c0.8-3.2,0.8-3.6,0.8-4.1s-0.4-0.8-0.8-0.8c-2.8,0-6.5,4.9-7.3,7.7l-2.4,8.5h-2 L120.7,333z"></path> <path class="st1" d="M163.3,344c-0.8,1.2-3.2,4.5-7.3,4.5c-2,0-6.1-1.6-6.1-6.5c0-5.7,5.7-10.5,10.1-10.5c2,0,4.1,0.8,4.1,3.2 c0,2.8-3.6,5.3-7.7,5.3c-0.8,0-2,0-2.8-0.4c-0.4,1.6-0.8,3.2-0.8,4.1c0,2.4,0.8,4.5,3.6,4.5C159.6,348,162,344.8,163.3,344 L163.3,344z M159.6,332.2c-3.2,0-4.9,4.1-5.7,6.5c0.8,0,1.6,0.4,2.8,0.4c4.1,0,5.3-3.2,5.3-4.9C162,333.4,160.8,332.2,159.6,332.2 z"></path> <path class="st1" d="M174.6,333h-2.4v-0.8h0.8c1.6,0,3.2,0,4.9-0.8l-1.6,5.3l0,0c1.6-2.8,4.5-5.3,7.7-5.3c2.4,0,3.6,1.2,3.6,3.2 c0,1.6-3.6,10.5-3.6,11.3s0.4,1.2,0.8,1.2c1.6,0,3.2-2.4,3.6-3.2l0.4,0.4c-0.8,1.2-2.4,4.1-5.3,4.1c-1.6,0-2.4-1.2-2.4-2.8 c0-2.4,3.6-10.5,3.6-12.2c0-0.8-0.4-1.2-1.6-1.2c-1.6,0-6.5,2.8-8.1,8.1l-2.4,7.7h-3.2L174.6,333z"></path> <path class="st1" d="M204.2,331.8c2.4,0,3.6,1.2,3.6,3.2c0,1.2-0.8,1.6-2,1.6s-1.6-0.8-1.6-1.6c0-1.2,0.8-1.6,1.2-2 c0-0.4-0.4-0.8-1.6-0.8c-1.6,0-3.2,0.8-3.2,3.2c0,3.2,5.3,3.2,5.3,8.1c0,2.4-2,4.9-6.5,4.9c-3.2,0-4.5-2.4-4.5-3.6s0.8-2.4,2-2.4 s1.6,0.8,1.6,1.6c0,2-2,1.2-2,2.4c0,0.4,0.4,1.2,2.8,1.2c2,0,3.6-1.2,3.6-3.2c0-3.2-4.9-3.6-4.9-7.7 C198.5,335.1,200.5,331.8,204.2,331.8z"></path> <path class="st1" d="M228.1,342.3c-0.4,1.2-3.2,6.1-7.7,6.1c-2,0-6.1-1.6-6.1-6.5c0-5.3,5.3-10.5,10.1-10.5c2.4,0,4.1,1.2,4.1,2.8 c0,1.2-0.8,2-1.6,2s-1.6-0.8-1.6-1.6c0-1.2,0.4-1.2,0.4-1.6s0-0.8-1.2-0.8c-5.3,0-6.9,9.3-6.9,12.2c0,2,0.8,3.2,2.8,3.2 c3.6,0,6.5-4.9,6.9-5.7L228.1,342.3z"></path> <path class="st1" d="M241.4,321.7H239v-0.8h1.6c1.6,0,2.8-0.4,4.1-0.8l-4.9,16.6l0,0c1.6-2.8,4.5-5.3,7.7-5.3 c2.4,0,3.6,1.2,3.6,3.2c0,1.6-3.6,10.5-3.6,11.3s0.4,1.2,0.8,1.2c1.6,0,3.2-2.4,3.6-3.2l0.4,0.4c-0.8,1.2-2.4,4.1-5.3,4.1 c-1.6,0-2.4-1.2-2.4-2.8c0-2.4,3.6-10.5,3.6-12.2c0-0.8-0.4-1.2-1.6-1.2c-1.6,0-6.5,2.8-8.1,8.1l-2.4,7.7h-2.4L241.4,321.7z"></path> <path class="st1" d="M272.6,344c-0.8,1.2-3.2,4.5-7.3,4.5c-2,0-6.1-1.6-6.1-6.5c0-5.7,5.7-10.5,10.1-10.5c2,0,4.1,0.8,4.1,3.2 c0,2.8-3.6,5.3-7.7,5.3c-0.8,0-2,0-2.8-0.4c-0.4,1.6-0.8,3.2-0.8,4.1c0,2.4,0.8,4.5,3.6,4.5C269,348,271.4,344.8,272.6,344 L272.6,344z M269,332.2c-3.2,0-4.9,4.1-5.7,6.5c0.8,0,1.6,0.4,2.8,0.4c4.1,0,5.3-3.2,5.3-4.9C271,333.4,270.2,332.2,269,332.2z"></path> <path class="st1" d="M284,333h-2.4v-0.8h0.8c1.6,0,3.2,0,4.9-0.8l-1.6,5.3l0,0c1.6-2.8,4.5-5.3,7.7-5.3c2.4,0,3.6,1.2,3.6,3.2 c0,1.6-3.6,10.5-3.6,11.3s0.4,1.2,0.8,1.2c1.6,0,3.2-2.4,3.6-3.2l0.4,0.4c-0.8,1.2-2.4,4.1-5.3,4.1c-1.6,0-2.4-1.2-2.4-2.8 c0-2.4,3.6-10.5,3.6-12.2c0-0.8-0.4-1.2-1.6-1.2c-1.6,0-6.5,2.8-8.1,8.1L282,348h-3.2L284,333z"></path> <path class="st1" d="M344,343.6c-0.8,2.4-2.8,4.9-5.3,4.9c-2.8,0-4.5-2.4-5.7-4.9l-2,2.4c-0.8,0.8-2.8,2.4-5.3,2.4 c-2.4,0-5.7-2.4-5.7-6.5c0-3.6,2.8-6.1,8.5-8.1c-0.4-1.2-0.8-2.8-0.8-4.1c0-5.7,4.5-6.5,5.7-6.5c2,0,4.1,1.2,4.1,3.6 s-2,4.5-4.1,5.3l-2,0.8c1.2,2.8,2.4,5.7,3.6,7.7c1.2-2,3.6-4.5,6.1-4.5c2,0,2.8,1.2,2.8,2.4c0,1.2-0.8,2-2,2c-1.6,0-2-1.2-2-2 c0-0.4,0-0.8,0-0.8c0-0.4,0-0.4-0.4-0.4c-0.8,0-3.6,2.8-4.1,3.6c1.2,2,2.8,5.3,5.3,5.3c0.8,0,1.6-0.8,2.8-3.2L344,343.6z M332.6,343.6c-1.6-2.8-3.2-6.1-4.5-9.3c-2.4,1.2-5.3,2.4-5.3,5.7c0,3.6,3.2,6.5,5.3,6.5c1.2,0,2.8-1.2,3.6-2L332.6,343.6z M333,331.8c1.2-0.4,3.2-2.4,3.2-4.9c0-2-1.2-3.2-3.2-3.2c-2.8,0-3.2,2.8-3.2,4.1c0,2,0.4,3.2,1.2,4.5L333,331.8z"></path> <path class="st1" d="M373.9,331.8c1.6,0,3.6,1.2,4.5,2.8c0.4-0.8,1.2-2.8,3.2-2.8c1.2,0,1.6,0.8,1.6,2c0,0.8-0.4,1.6-1.6,1.6 s-1.6-0.8-1.6-1.6c0-0.4,0-0.4,0-0.8c0,0,0,0-0.4,0s-1.2,1.2-1.6,2.4c0.4,0.8,0.4,1.6,0.4,2.4c0,2.8-3.2,6.1-7.3,6.1 c-0.8,0-2-0.4-2.8-0.4c-1.6,0.4-3.2,1.2-3.2,2.4c0,0.8,0.4,1.2,2.8,1.2c2,0,3.6,0,5.7,0c2.4,0,5.3,0.4,5.3,4.1 c0,3.2-3.2,8.5-10.1,8.5c-3.6,0-7.3-1.6-7.3-4.5c0-2.8,2-4.1,4.1-5.3l0,0c-1.2-0.4-2-1.2-2-2.4c0-2.4,2-3.6,4.1-3.6 c-1.2-0.8-2.4-2.4-2.4-4.5C366.2,334.6,370.3,331.8,373.9,331.8z M367.4,349.2c-0.4,0-3.6,1.2-3.6,4.9c0,1.6,1.6,4.1,6.1,4.1 c5.3,0,8.5-4.1,8.5-6.9c0-1.6-1.2-2-2.4-2h-8.6V349.2z M373.9,332.2c-3.6,0-4.9,6.1-4.9,8.1c0,1.6,1.2,2.8,2.8,2.8 c3.6,0,4.9-6.9,4.9-7.7C376.8,333.4,375.6,332.2,373.9,332.2z"></path> <path class="st1" d="M401.1,344c-0.8,1.2-3.2,4.5-7.3,4.5c-2,0-6.1-1.6-6.1-6.5c0-5.7,5.7-10.5,10.1-10.5c2,0,4.1,0.8,4.1,3.2 c0,2.8-3.6,5.3-7.7,5.3c-0.8,0-2,0-2.8-0.4c-0.4,1.6-0.8,3.2-0.8,4.1c0,2.4,0.8,4.5,3.6,4.5C397.4,348,399.9,344.8,401.1,344 L401.1,344z M397.4,332.2c-3.2,0-4.9,4.1-5.7,6.5c0.8,0,1.6,0.4,2.8,0.4c4.1,0,5.3-3.2,5.3-4.9 C399.5,333.4,398.6,332.2,397.4,332.2z"></path> <path class="st1" d="M416.9,331.8c2.4,0,3.6,1.2,3.6,3.2c0,1.2-0.8,1.6-2,1.6s-1.6-0.8-1.6-1.6c0-1.2,0.8-1.6,1.2-2 c0-0.4-0.4-0.8-1.6-0.8c-1.6,0-3.2,0.8-3.2,3.2c0,3.2,5.3,3.2,5.3,8.1c0,2.4-2,4.9-6.5,4.9c-3.2,0-4.5-2.4-4.5-3.6s0.8-2.4,2-2.4 s1.6,0.8,1.6,1.6c0,2-2,1.2-2,2.4c0,0.4,0.4,1.2,2.8,1.2c2,0,3.6-1.2,3.6-3.2c0-3.2-4.9-3.6-4.9-7.7 C411.2,335.1,413.2,331.8,416.9,331.8z"></path> <path class="st1" d="M440.8,342.3c-0.4,1.2-3.2,6.1-7.7,6.1c-2,0-6.1-1.6-6.1-6.5c0-5.3,5.3-10.5,10.1-10.5c2.4,0,4.1,1.2,4.1,2.8 c0,1.2-0.8,2-1.6,2s-1.6-0.8-1.6-1.6c0-1.2,0.4-1.2,0.4-1.6s0-0.8-1.2-0.8c-5.3,0-6.9,9.3-6.9,12.2c0,2,0.8,3.2,2.8,3.2 c3.6,0,6.5-4.9,6.9-5.7L440.8,342.3z"></path> <path class="st1" d="M454.6,321.7h-2.4v-0.8h1.6c1.6,0,2.8-0.4,4.1-0.8l-4.9,16.6l0,0c1.6-2.8,4.5-5.3,7.7-5.3 c2.4,0,3.6,1.2,3.6,3.2c0,1.6-3.6,10.5-3.6,11.3s0.4,1.2,0.8,1.2c1.6,0,3.2-2.4,3.6-3.2l0.4,0.4c-0.8,1.2-2.4,4.1-5.3,4.1 c-1.6,0-2.4-1.2-2.4-2.8c0-2.4,3.6-10.5,3.6-12.2c0-0.8-0.4-1.2-1.6-1.2c-1.6,0-6.5,2.8-8.1,8.1l-2.4,7.7h-3.2L454.6,321.7z"></path> <path class="st1" d="M473.6,332.6h1.2c1.6,0,3.2,0,4.9-0.8l-4.1,12.6c-0.4,0.8-0.8,1.6-0.8,2.4c0,0.4,0.4,0.8,0.8,0.8 c2,0,3.6-2.4,4.1-3.2l0.4,0.4c-0.4,0.8-2.8,4.1-5.7,4.1c-1.2,0-2.4-0.8-2.4-2.4c0-0.8,0.4-1.6,0.4-2.4l3.2-10.5h-2.4L473.6,332.6z M479.7,325.7c-0.8,0-1.2-0.8-1.2-1.2c0-1.2,1.2-2.8,2-2.8s1.6,0.8,1.6,1.2C482.1,324.1,480.9,325.7,479.7,325.7z"></path> <path class="st1" d="M499.9,342.3c-0.4,1.2-3.2,6.1-7.7,6.1c-2,0-6.1-1.6-6.1-6.5c0-5.3,5.3-10.5,10.1-10.5c2.4,0,4.1,1.2,4.1,2.8 c0,1.2-0.8,2-1.6,2s-1.6-0.8-1.6-1.6c0-1.2,0.4-1.2,0.4-1.6s0-0.8-1.2-0.8c-5.3,0-6.9,9.3-6.9,12.2c0,2,0.8,3.2,2.8,3.2 c3.6,0,6.5-4.9,6.9-5.7L499.9,342.3z"></path> <path class="st1" d="M513.7,321.7h-2.4v-0.8h1.6c1.6,0,2.8-0.4,4.1-0.8l-4.9,16.6l0,0c1.6-2.8,4.5-5.3,7.7-5.3 c2.4,0,3.6,1.2,3.6,3.2c0,1.6-3.6,10.5-3.6,11.3s0.4,1.2,0.8,1.2c1.6,0,3.2-2.4,3.6-3.2l0.4,0.4c-0.8,1.2-2.4,4.1-5.3,4.1 c-1.6,0-2.4-1.2-2.4-2.8c0-2.4,3.6-10.5,3.6-12.2c0-0.8-0.4-1.2-1.6-1.2c-1.6,0-6.5,2.8-8.1,8.1l-2.4,7.7h-3.2L513.7,321.7z"></path> <path class="st1" d="M535.6,333h-2.8v-0.8h2.8l1.6-5.3c1.2,0,2.4-0.4,3.2-1.2l-2,6.5h4.5v0.8h-4.5l-3.6,11.7 c0,0.4-0.4,1.2-0.4,1.6s0.4,1.2,1.2,1.2c1.2,0,4.1-2,5.7-4.5l0.4,0.4c-1.6,2-4.1,4.9-6.9,4.9c-2,0-3.2-0.8-3.2-2.8 c0-0.8,0.4-1.6,0.8-2.8L535.6,333z"></path> <path class="st1" d="M561.1,344c-0.8,1.2-3.2,4.5-7.3,4.5c-2,0-6.1-1.6-6.1-6.5c0-5.7,5.7-10.5,10.1-10.5c2,0,4.1,0.8,4.1,3.2 c0,2.8-3.6,5.3-7.7,5.3c-0.8,0-2,0-2.8-0.4c-0.4,1.6-0.8,3.2-0.8,4.1c0,2.4,0.8,4.5,3.6,4.5C557.9,348,560.3,344.8,561.1,344 L561.1,344z M557.5,332.2c-3.2,0-4.9,4.1-5.7,6.5c0.8,0,1.6,0.4,2.8,0.4c4.1,0,5.3-3.2,5.3-4.9 C559.9,333.4,559.1,332.2,557.5,332.2z"></path> <path class="st1" d="M572.5,333h-2.4v-0.8h0.8c1.6,0,3.2,0,4.9-0.8l-1.6,5.3l0,0c1.6-2.8,4.5-5.3,7.7-5.3c2.4,0,3.6,1.2,3.6,3.2 c0,1.6-3.6,10.5-3.6,11.3s0.4,1.2,0.8,1.2c1.6,0,3.2-2.4,3.6-3.2l0.4,0.4c-0.8,1.2-2.4,4.1-5.3,4.1c-1.6,0-2.4-1.2-2.4-2.8 c0-2.4,3.6-10.5,3.6-12.2c0-0.8-0.4-1.2-1.6-1.2c-1.6,0-6.5,2.8-8.1,8.1l-2.4,7.7h-3.2L572.5,333z"></path> </g> <rect x="0" y="0" class="st4" width="33.2" height="405.8"></rect> <g class="st5"> <path class="st1" d="M116.1,217.6h40.6v4.4h-40.6V217.6z"></path> </g> <g class="st5"> <path class="st1" d="M219.2,204.6h-5.9v-1.3H232v1.3H226v33.5h5.9v1.3h-18.7v-1.3h5.9V204.6z"></path> </g> <g class="st5"> <path class="st1" d="M292.9,204.6v-1.3h14l18.1,24.6h0.2v-20c0-1.9-0.5-3.3-3.4-3.3h-2.4v-1.3h13.2v1.3h-2.6 c-2.9,0-3.4,1.5-3.4,3.3v31.4h-1l-25.1-33.2h-0.2v28.6c0,1.9,0.5,3.3,3.4,3.3h2.8v1.3h-13.5v-1.3h2.6c2.9,0,3.4-1.5,3.4-3.3v-30.1 H292.9z"></path> <path class="st1" d="M385.9,204.6v-1.3h14L418,228h0.2v-20c0-1.9-0.5-3.3-3.4-3.3h-2.4v-1.3h13.2v1.3h-2.6c-2.9,0-3.4,1.5-3.4,3.3 v31.4h-1l-25.1-33.2h-0.2v28.6c0,1.9,0.5,3.3,3.4,3.3h2.8v1.3h-13.5v-1.3h2.6c2.9,0,3.4-1.5,3.4-3.3v-30.1H385.9z"></path> </g> <g class="st5"> <path class="st1" d="M492.2,204.6h-5.8v-1.3h29.3l1,9.2h-1.3c-0.4-5.8-2.8-7.9-8.6-7.9H499v15.7h3c5.3,0,5.8-1,6-6.3h1.3v14H508 c-0.2-5.4-0.7-6.3-6-6.3h-3v16.5h9.2c5.8,0,9.1-3,9.1-9.6h1.3v10.9h-32.2v-1.3h5.8V204.6z"></path> <path class="st1" d="M578.3,204.6v-1.3h14l18.1,24.6h0.2v-20c0-1.9-0.5-3.3-3.4-3.3h-2.4v-1.3h13.2v1.3h-2.6 c-2.9,0-3.4,1.5-3.4,3.3v31.4h-1l-25.1-33.2h-0.2v28.6c0,1.9,0.5,3.3,3.4,3.3h2.8v1.3h-13.5v-1.3h2.6c2.9,0,3.4-1.5,3.4-3.3v-30.1 H578.3z"></path> </g> </g> </svg> 